<svg width="14" height="12" viewBox="0 0 14 12" fill="none" xmlns="http://www.w3.org/2000/svg">
    <path fill-rule="evenodd" clip-rule="evenodd" d="M5.33331 0.998469L6.99998 1.68747L8.66665 0.998469C9.73655 0.556174 10.9301 0.556174 12 0.998469L13.2476 1.51422C13.5007 1.61886 13.6666 1.87221 13.6666 2.15394V10.3157C13.6666 10.6963 13.3682 11.0047 13 11.0047C12.9152 11.0047 12.8311 10.988 12.7524 10.9555L12 10.6444C10.9301 10.2021 9.73655 10.2021 8.66665 10.6444L6.99998 11.3334L5.33331 10.6444C4.26341 10.2021 3.06988 10.2021 1.99998 10.6444L1.24757 10.9555C0.905718 11.0968 0.517737 10.9249 0.380995 10.5716C0.349496 10.4902 0.333313 10.4034 0.333313 10.3157V2.15394C0.333313 1.87221 0.49928 1.61886 0.752386 1.51422L1.99998 0.998469C3.06988 0.556174 4.26341 0.556174 5.33331 0.998469ZM2.50937 2.23066L1.66665 2.57904V9.34282C3.01693 8.83609 4.505 8.85922 5.8427 9.41222L6.33331 9.61475V2.85475L4.82393 2.23066C4.08023 1.92322 3.25306 1.92322 2.50937 2.23066ZM9.17603 2.23066L7.66665 2.85408V9.61475L8.15726 9.41222C9.49496 8.85922 10.983 8.83609 12.3333 9.34282V2.57904L11.4906 2.23066C10.7469 1.92322 9.91973 1.92322 9.17603 2.23066Z" fill="black" fill-opacity="0.5"/>
</svg>
