<svg width="14" height="14" viewBox="0 0 14 14" fill="none" xmlns="http://www.w3.org/2000/svg">
    <path fill-rule="evenodd" clip-rule="evenodd" d="M10.3333 0.333252C10.7015 0.333252 11 0.631729 11 0.999919V1.66659H11.6666C12.7712 1.66659 13.6666 2.56202 13.6666 3.66659V11.6666C13.6666 12.7712 12.7712 13.6666 11.6666 13.6666H2.33331C1.22874 13.6666 0.333313 12.7712 0.333313 11.6666V3.66659C0.333313 2.56202 1.22874 1.66659 2.33331 1.66659H2.99998V0.999919C2.99998 0.631729 3.29846 0.333252 3.66665 0.333252C4.03484 0.333252 4.33331 0.631729 4.33331 0.999919V1.66659H9.66665V0.999919C9.66665 0.631729 9.96512 0.333252 10.3333 0.333252ZM12.3333 6.99992H1.66665V11.6666C1.66665 12.0348 1.96513 12.3333 2.33332 12.3333H11.6666C12.0348 12.3333 12.3333 12.0348 12.3333 11.6666V6.99992ZM10.3333 8.33325C10.7015 8.33325 11 8.63173 11 8.99992V10.3333C11 10.7014 10.7015 10.9999 10.3333 10.9999H8.99998C8.63179 10.9999 8.33331 10.7014 8.33331 10.3333V8.99992C8.33331 8.63173 8.63179 8.33325 8.99998 8.33325H10.3333ZM2.99998 2.99992H2.33332C1.96513 2.99992 1.66665 3.2984 1.66665 3.66659V5.66659H12.3333V3.66659C12.3333 3.2984 12.0348 2.99992 11.6666 2.99992H11V3.66659C11 4.03478 10.7015 4.33325 10.3333 4.33325C9.96513 4.33325 9.66665 4.03478 9.66665 3.66659V2.99992H4.33332V3.66659C4.33332 4.03478 4.03484 4.33325 3.66665 4.33325C3.29846 4.33325 2.99998 4.03478 2.99998 3.66659V2.99992Z" fill="black" fill-opacity="0.5"/>
</svg>
