<svg width="14" height="14" viewBox="0 0 14 14" fill="none" xmlns="http://www.w3.org/2000/svg">
    <path fill-rule="evenodd" clip-rule="evenodd" d="M11.6666 0.333252C12.7712 0.333252 13.6666 1.22868 13.6666 2.33325V11.6666C13.6666 12.7712 12.7712 13.6666 11.6666 13.6666H2.33331C1.22874 13.6666 0.333313 12.7712 0.333313 11.6666V2.33325C0.333313 1.22868 1.22874 0.333252 2.33331 0.333252H11.6666ZM11.6666 1.66659H2.33331C1.96512 1.66659 1.66665 1.96506 1.66665 2.33325V11.6666C1.66665 12.0348 1.96512 12.3333 2.33331 12.3333H11.6666C12.0348 12.3333 12.3333 12.0348 12.3333 11.6666V2.33325C12.3333 1.96506 12.0348 1.66659 11.6666 1.66659ZM4.33331 8.33325C4.7015 8.33325 4.99998 8.63173 4.99998 8.99992V10.3333C4.99998 10.7014 4.7015 10.9999 4.33331 10.9999C3.96512 10.9999 3.66665 10.7014 3.66665 10.3333V8.99992C3.66665 8.63173 3.96512 8.33325 4.33331 8.33325ZM6.99998 2.99992C7.36817 2.99992 7.66665 3.2984 7.66665 3.66659V10.3333C7.66665 10.7014 7.36817 10.9999 6.99998 10.9999C6.63179 10.9999 6.33331 10.7014 6.33331 10.3333V3.66659C6.33331 3.2984 6.63179 2.99992 6.99998 2.99992ZM9.66665 5.66658C10.0348 5.66658 10.3333 5.96506 10.3333 6.33325V10.3333C10.3333 10.7014 10.0348 10.9999 9.66665 10.9999C9.29846 10.9999 8.99998 10.7014 8.99998 10.3333V6.33325C8.99998 5.96506 9.29846 5.66658 9.66665 5.66658Z" fill="black" fill-opacity="0.5"/>
</svg>
