<svg width="16" height="16" viewBox="0 0 16 16" fill="none" xmlns="http://www.w3.org/2000/svg">
    <path fill-rule="evenodd" clip-rule="evenodd" d="M11.3334 1.33325C11.7016 1.33325 12 1.63173 12 1.99992V2.66659H12.6667C13.7713 2.66659 14.6667 3.56202 14.6667 4.66659V12.6666C14.6667 13.7712 13.7713 14.6666 12.6667 14.6666H3.33337C2.2288 14.6666 1.33337 13.7712 1.33337 12.6666V4.66659C1.33337 3.56202 2.2288 2.66659 3.33337 2.66659H4.00004V1.99992C4.00004 1.63173 4.29852 1.33325 4.66671 1.33325C5.0349 1.33325 5.33337 1.63173 5.33337 1.99992V2.66659H10.6667V1.99992C10.6667 1.63173 10.9652 1.33325 11.3334 1.33325ZM2.66676 7.99991V12.6666C2.66676 13.0348 2.96524 13.3332 3.33343 13.3332H12.6668C13.035 13.3332 13.3334 13.0348 13.3334 12.6666V7.99991H2.66676ZM2.66676 6.66658H13.3334V4.66658C13.3334 4.29839 13.035 3.99991 12.6668 3.99991H12.0001V4.66658C12.0001 5.03477 11.7016 5.33325 11.3334 5.33325C10.9652 5.33325 10.6668 5.03477 10.6668 4.66658V3.99991H5.33343V4.66658C5.33343 5.03477 5.03495 5.33325 4.66676 5.33325C4.29857 5.33325 4.0001 5.03477 4.0001 4.66658V3.99991H3.33343C2.96524 3.99991 2.66676 4.29839 2.66676 4.66658V6.66658Z" fill="black" fill-opacity="0.5"/>
</svg>
