<svg width="14" height="14" viewBox="0 0 14 14" fill="none" xmlns="http://www.w3.org/2000/svg">
    <path fill-rule="evenodd" clip-rule="evenodd" d="M4.99822 8.52739L0.437661 1.35784C0.155349 0.914019 0.474027 0.333252 0.999871 0.333252H12.9949C13.5208 0.333252 13.8394 0.914019 13.5571 1.35784L8.99657 8.52739V11.6666C8.99657 11.9191 8.85396 12.1499 8.6282 12.2629L5.96263 13.5962C5.51955 13.8178 4.99822 13.4955 4.99822 12.9999V8.52739ZM2.21346 1.6665L6.22646 7.97525C6.2945 8.08222 6.33064 8.20638 6.33064 8.33317V11.9211L7.66343 11.2545V8.33317C7.66343 8.20638 7.69957 8.08222 7.76761 7.97525L11.7806 1.6665H2.21346Z" fill="black"/>
</svg>
