<svg width="14" height="14" viewBox="0 0 14 14" fill="none" xmlns="http://www.w3.org/2000/svg">
    <path fill-rule="evenodd" clip-rule="evenodd" d="M0.99998 0.333252H6.33331C7.20415 0.333252 7.94499 0.889819 8.21953 1.66664L11.6666 1.66659C12.7318 1.66659 13.6024 2.4992 13.6633 3.54907L13.6666 3.66659V8.99992C13.6666 10.065 12.834 10.9357 11.7842 10.9965L11.6666 10.9999H8.99998C8.12939 10.9999 7.38872 10.4437 7.114 9.66719L1.66665 9.66659V12.9999C1.66665 13.3681 1.36817 13.6666 0.99998 13.6666C0.63179 13.6666 0.333313 13.3681 0.333313 12.9999V0.999919C0.333313 0.631729 0.63179 0.333252 0.99998 0.333252ZM8.33331 2.99992V8.99992C8.33331 9.34181 8.59067 9.62359 8.92223 9.6621L8.99998 9.66658H11.6666C12.0085 9.66658 12.2903 9.40923 12.3288 9.07767L12.3333 8.99992V3.66659C12.3333 3.32469 12.076 3.04291 11.7444 3.0044L11.6666 2.99992H8.33331ZM6.33331 1.66659H1.66665V8.33325H6.99998V2.33325C6.99998 1.99136 6.74262 1.70958 6.41106 1.67107L6.33331 1.66659Z" fill="black" fill-opacity="0.5"/>
</svg>
