<svg width="16" height="16" viewBox="0 0 16 16" fill="none" xmlns="http://www.w3.org/2000/svg">
    <path fill-rule="evenodd" clip-rule="evenodd" d="M2.86712 2.46655H1.13379V4.19989H2.86712V2.46655Z" fill="black" fill-opacity="0.5"/>
    <path fill-rule="evenodd" clip-rule="evenodd" d="M2.86712 7.13322H1.13379V8.86655H2.86712V7.13322Z" fill="black" fill-opacity="0.5"/>
    <path fill-rule="evenodd" clip-rule="evenodd" d="M2.86712 11.7999H1.13379V13.5332H2.86712V11.7999Z" fill="black" fill-opacity="0.5"/>
    <path fill-rule="evenodd" clip-rule="evenodd" d="M14.8671 12.6666C14.8671 12.1879 14.4791 11.7999 14.0004 11.7999H4.66709C4.18844 11.7999 3.80042 12.1879 3.80042 12.6666C3.80042 13.1452 4.18844 13.5332 4.66709 13.5332H14.0004C14.4791 13.5332 14.8671 13.1452 14.8671 12.6666Z" fill="black" fill-opacity="0.5"/>
    <path fill-rule="evenodd" clip-rule="evenodd" d="M14.8671 7.99988C14.8671 7.52124 14.4791 7.13322 14.0004 7.13322H4.66709C4.18844 7.13322 3.80042 7.52124 3.80042 7.99988C3.80042 8.47853 4.18844 8.86655 4.66709 8.86655H14.0004C14.4791 8.86655 14.8671 8.47853 14.8671 7.99988Z" fill="black" fill-opacity="0.5"/>
    <path fill-rule="evenodd" clip-rule="evenodd" d="M14.8671 3.33322C14.8671 2.85457 14.4791 2.46655 14.0004 2.46655H4.66709C4.18844 2.46655 3.80042 2.85457 3.80042 3.33322C3.80042 3.81187 4.18844 4.19989 4.66709 4.19989H14.0004C14.4791 4.19989 14.8671 3.81187 14.8671 3.33322Z" fill="black" fill-opacity="0.5"/>
</svg>
