<svg width="9" height="14" viewBox="0 0 9 14" fill="none" xmlns="http://www.w3.org/2000/svg">
    <path fill-rule="evenodd" clip-rule="evenodd" d="M7.29986 13C7.12067 13 6.94148 12.9347 6.80498 12.8047L1.20526 7.47141C0.931578 7.21075 0.931578 6.78942 1.20526 6.52876L6.80498 1.1955C7.07867 0.934834 7.52105 0.934834 7.79473 1.1955C8.06842 1.45616 8.06842 1.87749 7.79473 2.13815L2.68989 7.00008L7.79473 11.862C8.06842 12.1227 8.06842 12.544 7.79473 12.8047C7.65824 12.9347 7.47905 13 7.29986 13Z" fill="black"/>
    <path d="M7.29986 13C7.12067 13 6.94148 12.9347 6.80498 12.8047L1.20526 7.47141C0.931578 7.21075 0.931578 6.78942 1.20526 6.52876L6.80498 1.1955C7.07867 0.934834 7.52105 0.934834 7.79473 1.1955C8.06842 1.45616 8.06842 1.87749 7.79473 2.13815L2.68989 7.00008L7.79473 11.862C8.06842 12.1227 8.06842 12.544 7.79473 12.8047C7.65824 12.9347 7.47905 13 7.29986 13" stroke="black" stroke-width="0.25"/>
</svg>
