<svg width="14" height="10" viewBox="0 0 14 10" fill="none" xmlns="http://www.w3.org/2000/svg">
    <path fill-rule="evenodd" clip-rule="evenodd" d="M11 0.199951C12.3255 0.199951 13.4 1.27447 13.4 2.59995V7.39995C13.4 8.72543 12.3255 9.79995 11 9.79995H2.99998C1.67449 9.79995 0.599976 8.72543 0.599976 7.39995V2.59995C0.599976 1.27447 1.67449 0.199951 2.99998 0.199951H11ZM11.8 2.83995L7.52678 6.40201C7.25029 6.64394 6.84882 6.6641 6.5515 6.46249L6.47317 6.40201L2.19998 2.84075V7.39995C2.19998 7.84178 2.55815 8.19995 2.99998 8.19995H11C11.4418 8.19995 11.8 7.84178 11.8 7.39995V2.83995ZM10.5456 1.79995H3.45357L6.99997 4.73694L10.5456 1.79995Z" fill="black" fill-opacity="0.5"/>
</svg>
