<svg width="18" height="20" viewBox="0 0 18 20" fill="none" xmlns="http://www.w3.org/2000/svg">
    <path d="M8 20C9.26142 20 10.2846 18.9928 10.2846 17.75H5.71536C5.71536 18.9928 6.73857 20 8 20ZM15.6925 14.7368C15.0025 14.0069 13.7114 12.909 13.7114 9.3125C13.7114 6.58086 11.7657 4.39414 9.14214 3.85766V3.125C9.14214 2.50379 8.63071 2 8 2C7.36929 2 6.85786 2.50379 6.85786 3.125V3.85766C4.2343 4.39414 2.28859 6.58086 2.28859 9.3125C2.28859 12.909 0.997522 14.0069 0.307524 14.7368C0.0932387 14.9635 -0.00176102 15.2346 2.46924e-05 15.5C0.00395325 16.0766 0.463595 16.625 1.14645 16.625H14.8536C15.5364 16.625 15.9964 16.0766 16 15.5C16.0018 15.2346 15.9068 14.9632 15.6925 14.7368Z" fill="black" fill-opacity="0.2"/>
    <circle cx="13" cy="5" r="3.75" fill="#2E71F3" stroke="#EDF0F5" stroke-width="1.5"/>
</svg>