<svg width="16" height="16" viewBox="0 0 16 16" fill="none" xmlns="http://www.w3.org/2000/svg">
    <path fill-rule="evenodd" clip-rule="evenodd" d="M8 2.5C8.3797 2.5 8.6875 2.8078 8.6875 3.1875V7.3125H12.8125C13.1922 7.3125 13.5 7.6203 13.5 8C13.5 8.3797 13.1922 8.6875 12.8125 8.6875H8.6875V12.8125C8.6875 13.1922 8.3797 13.5 8 13.5C7.6203 13.5 7.3125 13.1922 7.3125 12.8125V8.6875H3.1875C2.8078 8.6875 2.5 8.3797 2.5 8C2.5 7.6203 2.8078 7.3125 3.1875 7.3125H7.3125V3.1875C7.3125 2.8078 7.6203 2.5 8 2.5Z" fill="white"/>
</svg>