<svg width="14" height="14" viewBox="0 0 14 14" fill="none" xmlns="http://www.w3.org/2000/svg">
    <path fill-rule="evenodd" clip-rule="evenodd" d="M3.66665 9.66659H10.3333C12.1743 9.66659 13.6666 11.159 13.6666 12.9999C13.6666 13.3681 13.3682 13.6666 13 13.6666C12.6581 13.6666 12.3763 13.4092 12.3378 13.0777L12.3299 12.8824C12.2713 11.8714 11.4618 11.0619 10.4508 11.0033L10.3333 10.9999H3.66665C2.56208 10.9999 1.66665 11.8953 1.66665 12.9999C1.66665 13.3681 1.36817 13.6666 0.99998 13.6666C0.63179 13.6666 0.333313 13.3681 0.333313 12.9999C0.333313 11.2074 1.74818 9.74537 3.52205 9.66967L3.66665 9.66659H10.3333H3.66665ZM6.99998 0.333252C9.20912 0.333252 11 2.12411 11 4.33325C11 6.54239 9.20912 8.33325 6.99998 8.33325C4.79084 8.33325 2.99998 6.54239 2.99998 4.33325C2.99998 2.12411 4.79084 0.333252 6.99998 0.333252ZM6.99998 1.66659C5.52722 1.66659 4.33331 2.86049 4.33331 4.33325C4.33331 5.80601 5.52722 6.99992 6.99998 6.99992C8.47274 6.99992 9.66665 5.80601 9.66665 4.33325C9.66665 2.86049 8.47274 1.66659 6.99998 1.66659Z" fill="black" fill-opacity="0.5"/>
</svg>