<svg width="9" height="14" viewBox="0 0 9 14" fill="none" xmlns="http://www.w3.org/2000/svg">
    <path fill-rule="evenodd" clip-rule="evenodd" d="M1.70014 13C1.87933 13 2.05852 12.9347 2.19502 12.8047L7.79474 7.47141C8.06842 7.21075 8.06842 6.78942 7.79474 6.52876L2.19502 1.1955C1.92133 0.934834 1.47895 0.934834 1.20527 1.1955C0.931579 1.45616 0.931579 1.87749 1.20527 2.13815L6.31011 7.00008L1.20527 11.862C0.931579 12.1227 0.931579 12.544 1.20527 12.8047C1.34176 12.9347 1.52095 13 1.70014 13Z" fill="black"/>
    <path d="M1.70014 13C1.87933 13 2.05852 12.9347 2.19502 12.8047L7.79474 7.47141C8.06842 7.21075 8.06842 6.78942 7.79474 6.52876L2.19502 1.1955C1.92133 0.934834 1.47895 0.934834 1.20527 1.1955C0.931579 1.45616 0.931579 1.87749 1.20527 2.13815L6.31011 7.00008L1.20527 11.862C0.931579 12.1227 0.931579 12.544 1.20527 12.8047C1.34176 12.9347 1.52095 13 1.70014 13" stroke="black" stroke-width="0.25"/>
</svg>
