<svg width="12" height="14" viewBox="0 0 12 14" fill="none" xmlns="http://www.w3.org/2000/svg">
    <path fill-rule="evenodd" clip-rule="evenodd" d="M8 0.333252C10.2091 0.333252 12 2.12411 12 4.33325C12 6.49218 10.2896 8.25163 8.14996 8.33049L8 8.33325H4.66667V9.66659H7.33333C7.70152 9.66659 8 9.96506 8 10.3333C8 10.7014 7.70152 10.9999 7.33333 10.9999H4.66667V12.9999C4.66667 13.3681 4.36819 13.6666 4 13.6666C3.63181 13.6666 3.33333 13.3681 3.33333 12.9999V10.9999H0.666667C0.298477 10.9999 0 10.7014 0 10.3333C0 9.96506 0.298477 9.66659 0.666667 9.66659H3.33333V8.33325H0.666667C0.298477 8.33325 0 8.03478 0 7.66659C0 7.3247 0.25736 7.04291 0.588919 7.0044L0.666667 6.99992H3.33333V0.999919C3.33333 0.631729 3.63181 0.333252 4 0.333252H8ZM8.00002 1.66656H4.66668V6.9999H8.00002C9.47278 6.9999 10.6667 5.80599 10.6667 4.33323C10.6667 2.9051 9.54404 1.73918 8.13311 1.66983L8.00002 1.66656Z" fill="black" fill-opacity="0.5"/>
</svg>
