<svg width="14" height="14" viewBox="0 0 14 14" fill="none" xmlns="http://www.w3.org/2000/svg">
    <path fill-rule="evenodd" clip-rule="evenodd" d="M6.20004 0.600098C9.29283 0.600098 11.8 3.1073 11.8 6.2001C11.8 7.4612 11.3832 8.62494 10.6797 9.56104L10.7236 9.59536L10.7657 9.63441L13.1657 12.0344C13.4781 12.3468 13.4781 12.8534 13.1657 13.1658C12.8773 13.4542 12.4235 13.4764 12.1097 13.2323L12.0344 13.1658L9.63435 10.7658C9.60699 10.7384 9.58202 10.7096 9.55945 10.6795C8.62488 11.3832 7.46114 11.8001 6.20004 11.8001C3.10724 11.8001 0.600037 9.29289 0.600037 6.2001C0.600037 3.1073 3.10724 0.600098 6.20004 0.600098ZM6.20005 2.20009C3.99091 2.20009 2.20005 3.99095 2.20005 6.20009C2.20005 8.40923 3.99091 10.2001 6.20005 10.2001C8.40919 10.2001 10.2 8.40923 10.2 6.20009C10.2 3.99095 8.40919 2.20009 6.20005 2.20009Z" fill="black" fill-opacity="0.5"/>
</svg>