<svg width="14" height="14" viewBox="0 0 14 14" fill="none" xmlns="http://www.w3.org/2000/svg">
    <path fill-rule="evenodd" clip-rule="evenodd" d="M6.26503 0.334541L7.68003 0.334473C7.72281 0.336458 7.76039 0.341352 7.81314 0.35284C8.20011 0.437101 8.34723 0.576048 8.70736 1.42704L8.76606 1.56742L8.99238 2.1282L9.01099 2.13585L9.3026 2.00385C9.93769 1.71985 10.2651 1.60023 10.4852 1.56685L10.5308 1.56099L10.6139 1.55651C10.8121 1.55651 11.014 1.62671 11.1685 1.74894L11.2416 1.81431L12.1462 2.71518L12.2091 2.78165C12.4932 3.09466 12.5198 3.31658 12.2055 4.12537L12.1009 4.38629L11.8543 4.96959L11.859 4.98098L12.4238 5.19188L12.696 5.29948C13.3993 5.58702 13.5438 5.74028 13.6378 6.0923C13.6568 6.16329 13.6635 6.21164 13.6657 6.27167L13.6666 6.33686V7.60868C13.6666 7.69909 13.6635 7.75015 13.6413 7.8395C13.5477 8.21531 13.4088 8.35841 12.5636 8.71542L12.4242 8.77363L11.8673 8.99837L11.8634 9.00775L12.0648 9.44768C12.5656 10.5607 12.5831 10.8047 12.2539 11.1712L12.2128 11.2159L11.2842 12.1438C11.1179 12.3118 10.8811 12.4043 10.6519 12.4043C10.4573 12.4043 10.1516 12.3118 9.63059 12.1029L9.35164 11.9886L9.03389 11.8542L9.01572 11.8617L8.85154 12.3021C8.44957 13.3611 8.31185 13.5331 7.89891 13.6396C7.83789 13.6554 7.79425 13.6621 7.74469 13.6648L7.66301 13.6665H6.3904C6.31097 13.6665 6.26615 13.6642 6.18726 13.6471C5.80045 13.5632 5.65274 13.4239 5.2919 12.5725L5.23308 12.432L5.00638 11.8709L4.98894 11.8637L4.56541 12.0541C3.88798 12.3523 3.59451 12.4431 3.38535 12.4431C3.18948 12.4431 2.99003 12.3743 2.83137 12.2509L2.75564 12.1847L1.85227 11.2825L1.74911 11.17C1.50137 10.8785 1.48919 10.6525 1.79327 9.87446L1.95173 9.48502L2.14516 9.03032L2.14113 9.02054L1.7032 8.85735C0.824703 8.52399 0.553966 8.37044 0.425312 8.09011L0.390512 8.00191L0.361443 7.90425C0.344995 7.84182 0.337975 7.79709 0.335123 7.74619L0.333313 7.66224V6.38966C0.333313 6.29854 0.336472 6.24703 0.359161 6.15691C0.443754 5.82092 0.563821 5.6717 1.19629 5.38829L1.45842 5.27509L2.13153 5.00289L2.13614 4.99168L1.88448 4.43639C1.4692 3.49315 1.43481 3.20595 1.69682 2.88519L1.73266 2.8431L1.81756 2.75312L2.71742 1.8553C2.88229 1.68952 3.11811 1.59606 3.34764 1.59606C3.51182 1.59606 3.75287 1.66102 4.13868 1.80715L4.52682 1.96101L4.96684 2.14543L4.98487 2.13792L5.1503 1.69471C5.55602 0.628051 5.70084 0.449671 6.12879 0.35387C6.18277 0.341786 6.22128 0.336633 6.26503 0.334541ZM7.34865 1.66655H6.60536L6.50056 1.91223C6.46076 2.0099 6.41587 2.12399 6.36517 2.25642L6.13286 2.87784C6.07714 3.02496 5.97156 3.14681 5.83581 3.22303L5.76552 3.25724L5.21945 3.48448C5.08158 3.54185 4.9293 3.55095 4.78691 3.51188L4.70286 3.48265L4.05681 3.21034L3.70785 3.07118L3.4733 2.98461L2.94649 3.51022L3.00849 3.66683C3.03272 3.72581 3.06061 3.79176 3.0924 3.86523L3.19978 4.10875L3.46909 4.69748C3.53359 4.83768 3.54708 4.99497 3.509 5.14262L3.47996 5.22983L3.25666 5.77245C3.19755 5.91611 3.09048 6.03383 2.95493 6.10643L2.88487 6.13888L2.15982 6.43033L1.79737 6.58569L1.66665 6.64622V7.39967L1.82307 7.46748C1.88229 7.49225 1.94879 7.51925 2.02316 7.54871L2.2705 7.6447L2.87153 7.8679C3.02305 7.92252 3.14878 8.02978 3.22677 8.1687L3.26168 8.24069L3.485 8.78172C3.54235 8.92065 3.55075 9.074 3.51042 9.21701L3.48038 9.30138L3.22119 9.9096L3.05864 10.3108L2.97946 10.5239L3.5063 11.05L3.66317 10.988C3.72095 10.9645 3.78428 10.9381 3.85331 10.9086L4.33721 10.6952L4.68618 10.5346C4.83221 10.4648 4.99773 10.4509 5.15195 10.4938L5.22798 10.5199L5.77727 10.7467C5.92286 10.8068 6.04166 10.9161 6.1138 11.0543L6.1459 11.1257L6.28259 11.4706L6.47712 11.9437L6.5897 12.2021L6.65075 12.3332H7.39623L7.5027 12.0822L7.64136 11.7282L7.86714 11.1228C7.92282 10.9744 8.0292 10.8515 8.16612 10.775L8.23703 10.7407L8.78398 10.515C8.92025 10.4587 9.07049 10.4496 9.21129 10.4874L9.29446 10.5157L9.80951 10.7342L10.1854 10.8873L10.3911 10.9666L10.5269 11.0158L11.0543 10.4893L10.9527 10.2384L10.8002 9.89073L10.5304 9.30247C10.4656 9.16203 10.4521 9.0044 10.4904 8.85647L10.5195 8.7691L10.7424 8.22884C10.8012 8.08629 10.9073 7.9693 11.0416 7.89669L11.111 7.86417L11.7251 7.61731L12.0385 7.48591L12.1247 7.44842L12.3333 7.35299V6.6003L12.1242 6.51103L11.841 6.39895L11.126 6.13281C10.9749 6.0778 10.8496 5.97035 10.772 5.83143L10.7372 5.75944L10.5143 5.21623C10.4574 5.07764 10.4492 4.9248 10.4894 4.78225L10.5193 4.69814L10.7263 4.21422C10.7802 4.08624 10.8271 3.97275 10.8676 3.87245L10.9402 3.68903L11.0193 3.47469L10.4922 2.94976L10.3353 3.01187C10.2484 3.04727 10.149 3.08928 10.0361 3.13834L9.91879 3.18976L9.30355 3.46881C9.16359 3.53295 9.00668 3.54629 8.85938 3.5083L8.77237 3.47935L8.22344 3.25371C8.07974 3.19464 7.96198 3.08761 7.88933 2.95207L7.85685 2.88202L7.66276 2.39642L7.52211 2.05623L7.44421 1.8753L7.34865 1.66655ZM7.00029 4.33322C8.47106 4.33322 9.66665 5.52856 9.66665 6.9993C9.66665 8.47014 8.47097 9.66655 7.00029 9.66655C5.5292 9.66655 4.33331 8.47035 4.33331 6.9993C4.33331 5.52835 5.52911 4.33322 7.00029 4.33322ZM7.00029 5.66655C6.26532 5.66655 5.66665 6.26489 5.66665 6.9993C5.66665 7.73405 6.26566 8.33321 7.00029 8.33321C7.73441 8.33321 8.33331 7.73394 8.33331 6.9993C8.33331 6.265 7.73474 5.66655 7.00029 5.66655Z" fill="black" fill-opacity="0.5"/>
</svg>
