<svg width="11" height="11" viewBox="0 0 11 11" fill="none" xmlns="http://www.w3.org/2000/svg">
    <path fill-rule="evenodd" clip-rule="evenodd" d="M3.20817 7.33353H7.7915C9.05716 7.33353 10.0832 8.35954 10.0832 9.62519C10.0832 9.87832 9.87797 10.0835 9.62484 10.0835C9.38979 10.0835 9.19606 9.90659 9.16959 9.67864L9.16417 9.5444C9.1239 8.84935 8.56735 8.2928 7.8723 8.25253L7.7915 8.25019H3.20817C2.44878 8.25019 1.83317 8.8658 1.83317 9.62519C1.83317 9.87832 1.62797 10.0835 1.37484 10.0835C1.12171 10.0835 0.916504 9.87832 0.916504 9.62519C0.916504 8.39285 1.88923 7.38769 3.10876 7.33564L3.20817 7.33353H7.7915H3.20817ZM5.50006 0.916748C7.01884 0.916748 8.25006 2.14796 8.25006 3.66675C8.25006 5.18553 7.01884 6.41675 5.50006 6.41675C3.98128 6.41675 2.75006 5.18553 2.75006 3.66675C2.75006 2.14796 3.98128 0.916748 5.50006 0.916748ZM5.49984 1.83353C4.48732 1.83353 3.6665 2.65434 3.6665 3.66686C3.6665 4.67938 4.48732 5.50019 5.49984 5.50019C6.51236 5.50019 7.33317 4.67938 7.33317 3.66686C7.33317 2.65434 6.51236 1.83353 5.49984 1.83353Z" fill="black"/>
</svg>
