<svg width="14" height="12" viewBox="0 0 14 12" fill="none" xmlns="http://www.w3.org/2000/svg">
    <path fill-rule="evenodd" clip-rule="evenodd" d="M11.6666 0.666748C12.7712 0.666748 13.6666 1.56218 13.6666 2.66675V4.00008C13.6666 4.36827 13.3682 4.66675 13 4.66675C12.2636 4.66675 11.6666 5.2637 11.6666 6.00008C11.6666 6.70299 12.2106 7.27886 12.9005 7.32976L13.0777 7.3379C13.4093 7.37641 13.6666 7.65819 13.6666 8.00008V9.33341C13.6666 10.438 12.7712 11.3334 11.6666 11.3334H2.33331C1.22874 11.3334 0.333313 10.438 0.333313 9.33341V8.00008C0.333313 7.65819 0.590673 7.37641 0.922232 7.3379L1.09949 7.32976C1.78939 7.27886 2.33331 6.70299 2.33331 6.00008C2.33331 5.2637 1.73636 4.66675 0.99998 4.66675C0.63179 4.66675 0.333313 4.36827 0.333313 4.00008V2.66675C0.333313 1.56218 1.22874 0.666748 2.33331 0.666748H11.6666ZM7.66665 2.00008H2.33331C1.96512 2.00008 1.66665 2.29856 1.66665 2.66675V3.41743C2.8168 3.71345 3.66665 4.75752 3.66665 6.00008C3.66665 7.24264 2.8168 8.28671 1.66665 8.58274V9.33342C1.66665 9.7016 1.96512 10.0001 2.33331 10.0001H7.66665V9.33342C7.66665 8.96523 7.96512 8.66675 8.33331 8.66675C8.7015 8.66675 8.99998 8.96523 8.99998 9.33342V10.0001H11.6666C12.0348 10.0001 12.3333 9.7016 12.3333 9.33342V8.58274C11.1832 8.28671 10.3333 7.24264 10.3333 6.00008C10.3333 4.80354 11.1214 3.79107 12.2068 3.45337L12.3333 3.41743V2.66675C12.3333 2.29856 12.0348 2.00008 11.6666 2.00008H8.99998V2.66675C8.99998 3.03494 8.7015 3.33341 8.33331 3.33341C7.96512 3.33341 7.66665 3.03494 7.66665 2.66675V2.00008ZM8.33331 4.66675C8.7015 4.66675 8.99998 4.96522 8.99998 5.33341V6.66675C8.99998 7.03494 8.7015 7.33341 8.33331 7.33341C7.96512 7.33341 7.66665 7.03494 7.66665 6.66675V5.33341C7.66665 4.96522 7.96512 4.66675 8.33331 4.66675Z" fill="black" fill-opacity="0.5"/>
</svg>
