<svg width="120" height="69" viewBox="0 0 120 69" fill="none" xmlns="http://www.w3.org/2000/svg">
    <path fill-rule="evenodd" clip-rule="evenodd" d="M64.4738 44.567C73.5011 44.567 80.8598 44.339 80.8598 44.0548C80.8598 43.7741 73.5011 43.5427 64.4738 43.5427C55.45 43.5427 48.0879 43.7741 48.0879 44.0548C48.0879 44.3373 55.45 44.567 64.4738 44.567Z" fill="#B3B3B3"/>
    <path fill-rule="evenodd" clip-rule="evenodd" d="M65.4282 11.9916L66.0667 13.2772C66.1604 13.4645 66.317 13.5786 66.5247 13.6092L67.9464 13.817C68.0605 13.834 68.1541 13.9106 68.1899 14.0247C68.2273 14.1354 68.1967 14.2495 68.1133 14.3329L67.0866 15.3376C66.9368 15.484 66.8789 15.6662 66.9129 15.8756L67.1513 17.2907C67.1717 17.4082 67.1274 17.5188 67.0304 17.5887C66.9333 17.6585 66.8159 17.6653 66.712 17.6091L65.4401 16.9433C65.2563 16.8462 65.0622 16.8462 64.8749 16.9433L63.603 17.6091C63.4992 17.6653 63.3817 17.6568 63.2846 17.5887C63.1876 17.5188 63.1433 17.4082 63.1638 17.2907L63.4021 15.8756C63.4362 15.6679 63.3783 15.484 63.2285 15.3376L62.2018 14.3329C62.1183 14.2495 62.0877 14.1354 62.1252 14.0247C62.1626 13.9106 62.2529 13.834 62.372 13.817L63.7903 13.6092C63.998 13.5786 64.1547 13.4645 64.2483 13.2772L64.8868 11.9916C64.9396 11.8843 65.04 11.8213 65.1609 11.8213C65.2767 11.823 65.3755 11.8843 65.4282 11.9916Z" fill="#DF1B7D"/>
    <path fill-rule="evenodd" clip-rule="evenodd" d="M54.7044 17.7304L55.0023 18.3298C55.0432 18.4166 55.1198 18.4711 55.2134 18.4865L55.8792 18.5835C55.9353 18.5903 55.9762 18.6278 55.9932 18.6806C56.0103 18.7334 55.9966 18.7879 55.9558 18.827L55.4773 19.2953C55.4075 19.3651 55.3803 19.4519 55.3973 19.5456L55.508 20.208C55.5182 20.2642 55.4978 20.3153 55.4518 20.3459C55.4058 20.3766 55.3514 20.38 55.302 20.3561L54.7061 20.0445C54.6192 20.0002 54.529 20.0002 54.4422 20.0445L53.8496 20.3561C53.802 20.38 53.7458 20.3766 53.6998 20.3459C53.6555 20.3153 53.6334 20.2625 53.6436 20.208L53.7543 19.5456C53.7713 19.4519 53.7441 19.3651 53.6709 19.2953L53.1924 18.827C53.155 18.7896 53.1397 18.7334 53.1584 18.6806C53.1754 18.6278 53.218 18.5903 53.2725 18.5835L53.9348 18.4865C54.0318 18.4728 54.105 18.4166 54.1493 18.3298L54.4473 17.7304C54.4711 17.6776 54.5171 17.6504 54.5716 17.6504C54.626 17.6504 54.6788 17.6776 54.7044 17.7304Z" fill="#F80003"/>
    <path fill-rule="evenodd" clip-rule="evenodd" d="M67.7376 20.5959L68.0355 21.1953C68.0764 21.2821 68.1496 21.3366 68.2466 21.3519L68.9124 21.449C68.9652 21.4558 69.0094 21.495 69.0264 21.5461C69.0401 21.5988 69.0299 21.6533 68.989 21.6925L68.5106 22.1608C68.4407 22.2306 68.4135 22.3174 68.4271 22.4111L68.5412 23.0735C68.548 23.1297 68.5276 23.1807 68.485 23.2114C68.4407 23.242 68.3846 23.2489 68.3318 23.2216L67.7393 22.91C67.6524 22.8657 67.5622 22.8657 67.4754 22.91L66.8828 23.2216C66.8352 23.2489 66.779 23.242 66.733 23.2114C66.6871 23.1807 66.6666 23.128 66.6734 23.0735L66.7875 22.4111C66.8011 22.3174 66.7739 22.2306 66.7041 22.1608L66.2256 21.6925C66.1882 21.655 66.1729 21.5988 66.1916 21.5461C66.2086 21.4933 66.2512 21.4558 66.3057 21.449L66.968 21.3519C67.065 21.3383 67.1382 21.2821 67.1825 21.1953L67.4771 20.5959C67.5043 20.5465 67.5503 20.5159 67.6048 20.5159C67.6644 20.5159 67.7137 20.5465 67.7376 20.5959Z" fill="#6DC40F"/>
    <path fill-rule="evenodd" clip-rule="evenodd" d="M72.4313 16.3504L72.656 16.8016C72.6867 16.868 72.7428 16.9055 72.8161 16.9157L73.3115 16.9923C73.3524 16.9957 73.3881 17.023 73.3984 17.0655C73.412 17.103 73.4018 17.1456 73.3745 17.1728L73.0136 17.527C72.9608 17.5747 72.9404 17.6411 72.9506 17.7143L73.034 18.2098C73.0408 18.2507 73.0272 18.2899 72.9931 18.3137C72.9591 18.3375 72.9165 18.3409 72.8825 18.3205L72.4347 18.0889C72.3683 18.0549 72.3036 18.0549 72.2372 18.0889L71.7894 18.3205C71.7553 18.3409 71.7128 18.3375 71.6787 18.3137C71.6447 18.2899 71.631 18.2507 71.6379 18.2098L71.7213 17.7143C71.7349 17.6411 71.7111 17.5764 71.6583 17.527L71.3007 17.1728C71.2701 17.1456 71.2599 17.103 71.2735 17.0655C71.2837 17.0247 71.3178 16.9957 71.3603 16.9923L71.8558 16.9157C71.929 16.9055 71.9835 16.868 72.0158 16.8016L72.2406 16.3504C72.2576 16.3129 72.2968 16.2908 72.3376 16.2908C72.3785 16.2908 72.4142 16.3112 72.4313 16.3504Z" fill="#2E7024"/>
    <path fill-rule="evenodd" clip-rule="evenodd" d="M43.8668 22.4754L44.0916 22.93C44.1222 22.9964 44.1784 23.0339 44.2516 23.0441L44.7505 23.1173C44.7879 23.1241 44.8237 23.1514 44.8339 23.1905C44.8475 23.2314 44.8373 23.2706 44.8101 23.3012L44.4491 23.6503C44.3963 23.7031 44.3759 23.7678 44.3861 23.841L44.4695 24.3365C44.4764 24.3774 44.4627 24.4165 44.4287 24.4404C44.398 24.4642 44.3555 24.4676 44.318 24.4472L43.8702 24.2156C43.8038 24.1816 43.7391 24.1816 43.6727 24.2156L43.2249 24.4472C43.1909 24.4676 43.1483 24.4642 43.1143 24.4404C43.0802 24.4165 43.0649 24.3774 43.0734 24.3365L43.1568 23.841C43.1705 23.7678 43.15 23.7031 43.0972 23.6503L42.7363 23.2995C42.7056 23.2689 42.6954 23.2297 42.709 23.1888C42.7227 23.1514 42.7533 23.1224 42.7959 23.1156L43.2913 23.0424C43.3646 23.0322 43.419 22.9947 43.4548 22.9283L43.6761 22.4771C43.6932 22.4396 43.7323 22.4141 43.7732 22.4141C43.8157 22.4175 43.8498 22.4413 43.8668 22.4754Z" fill="#FDC700"/>
    <path fill-rule="evenodd" clip-rule="evenodd" d="M48.6837 14.5441L49.0685 15.3205C49.1246 15.4346 49.2217 15.5044 49.346 15.5215L50.2024 15.6458C50.2722 15.656 50.3267 15.7054 50.3488 15.7701C50.3727 15.8399 50.3556 15.908 50.3045 15.9574L49.6848 16.5636C49.5946 16.6538 49.5605 16.7645 49.5809 16.8888L49.7274 17.7419C49.7376 17.8117 49.7103 17.8764 49.6542 17.919C49.5946 17.9633 49.523 17.9667 49.4601 17.936L48.6939 17.5342C48.5832 17.4746 48.4657 17.4746 48.3551 17.5342L47.5855 17.936C47.5225 17.9667 47.451 17.9633 47.3948 17.919C47.3352 17.8781 47.3079 17.8117 47.3216 17.7419L47.4629 16.8888C47.4867 16.7645 47.4493 16.6538 47.359 16.5636L46.7427 15.9574C46.6899 15.908 46.6729 15.8399 46.695 15.7701C46.7188 15.7037 46.7716 15.656 46.8448 15.6458L47.7013 15.5215C47.8255 15.5044 47.9192 15.4346 47.9754 15.3205L48.3602 14.5441C48.3942 14.4811 48.4538 14.4436 48.527 14.4436C48.59 14.4436 48.653 14.4811 48.6837 14.5441Z" fill="#2B0055"/>
    <path fill-rule="evenodd" clip-rule="evenodd" d="M60.9968 6.17781L61.4258 7.05134C61.4922 7.17565 61.5961 7.25227 61.7374 7.27271L62.6977 7.41404C62.7777 7.42766 62.839 7.48045 62.8646 7.55537C62.8884 7.632 62.8714 7.70862 62.8118 7.76311L62.1154 8.44593C62.015 8.54299 61.9775 8.6673 61.9979 8.80693L62.1614 9.7673C62.175 9.84733 62.1444 9.92055 62.0814 9.96823C62.015 10.0176 61.9349 10.021 61.8634 9.98526L61.0036 9.53061C60.8793 9.46761 60.7465 9.46761 60.6222 9.53061L59.759 9.98526C59.6858 10.0193 59.6057 10.0159 59.5411 9.96823C59.4781 9.92055 59.4474 9.84733 59.461 9.7673L59.6245 8.80693C59.6483 8.669 59.6075 8.54299 59.507 8.44593L58.8106 7.76311C58.7544 7.70692 58.734 7.632 58.7578 7.55537C58.7817 7.47874 58.8447 7.42766 58.9247 7.41404L59.8884 7.27271C60.0263 7.25227 60.1353 7.17565 60.1966 7.05134L60.6273 6.17781C60.6648 6.10459 60.7312 6.06372 60.8146 6.06372C60.8929 6.06372 60.9627 6.10459 60.9968 6.17781Z" fill="#FDD800"/>
    <path fill-rule="evenodd" clip-rule="evenodd" d="M72.7108 8.83056L72.8606 9.13536C72.8844 9.17623 72.9202 9.20517 72.9679 9.21199L73.3084 9.26477C73.3356 9.26818 73.3561 9.28521 73.3646 9.31415C73.3748 9.33799 73.368 9.36694 73.3475 9.38737L73.1058 9.62577C73.0717 9.65982 73.0564 9.70239 73.0649 9.75007L73.1211 10.0855C73.1279 10.1128 73.1177 10.1383 73.0939 10.1553C73.0734 10.1724 73.0411 10.1758 73.0172 10.1621L72.7159 10.0021C72.675 9.98165 72.6256 9.98165 72.5848 10.0021L72.2834 10.1621C72.2596 10.1758 72.2306 10.1724 72.2068 10.1553C72.1864 10.1383 72.1727 10.1145 72.1796 10.0855L72.2357 9.75007C72.246 9.70069 72.2323 9.65982 72.1949 9.62577L71.9514 9.38737C71.931 9.36694 71.9242 9.33799 71.9344 9.31415C71.9412 9.28691 71.965 9.26818 71.994 9.26477L72.3311 9.21199C72.3788 9.20517 72.4179 9.17793 72.4384 9.13536L72.5916 8.83056C72.6018 8.80332 72.6256 8.78969 72.6546 8.78969C72.6716 8.78799 72.6954 8.80161 72.7108 8.83056Z" fill="#903187"/>
    <path fill-rule="evenodd" clip-rule="evenodd" d="M52.4233 9.79416L52.5731 10.099C52.597 10.1449 52.6361 10.1688 52.6838 10.1756L53.0209 10.2284C53.0481 10.2318 53.0686 10.2488 53.0771 10.2778C53.0873 10.305 53.0805 10.3305 53.0601 10.351L52.8166 10.5894C52.7825 10.6234 52.7689 10.666 52.7757 10.7137L52.8353 11.0508C52.8387 11.0781 52.8285 11.107 52.8047 11.1206C52.7842 11.1377 52.7553 11.1411 52.7281 11.1274L52.4301 10.9674C52.3858 10.947 52.3399 10.947 52.2956 10.9674L51.9942 11.1274C51.9704 11.1411 51.9414 11.1377 51.9176 11.1206C51.8972 11.107 51.887 11.0798 51.8904 11.0508L51.9466 10.7137C51.9568 10.666 51.9431 10.6234 51.9057 10.5894L51.6622 10.351C51.6452 10.3305 51.6384 10.3067 51.6452 10.2778C51.6554 10.2505 51.6758 10.2335 51.7048 10.2284L52.0419 10.1756C52.0896 10.1688 52.1287 10.1449 52.1492 10.099L52.3024 9.79416C52.3126 9.77032 52.3365 9.75329 52.3654 9.75329C52.3858 9.75159 52.4097 9.76862 52.4233 9.79416Z" fill="#FE8900"/>
    <path fill-rule="evenodd" clip-rule="evenodd" d="M41.6331 15.8292L41.7829 16.134C41.8068 16.18 41.8425 16.2038 41.8936 16.2106L42.2307 16.2634C42.258 16.2668 42.2784 16.2838 42.2869 16.3111C42.2971 16.3349 42.2903 16.3639 42.2699 16.3843L42.0281 16.6227C41.994 16.6568 41.9787 16.6993 41.9872 16.747L42.0434 17.0842C42.0502 17.1114 42.04 17.1403 42.0162 17.154C41.9958 17.171 41.9668 17.1744 41.9396 17.1608L41.6382 17.0007C41.5973 16.9803 41.5514 16.9803 41.5071 17.0007L41.2057 17.1608C41.1819 17.1744 41.153 17.171 41.1291 17.154C41.1087 17.1403 41.0985 17.1131 41.1019 17.0842L41.1581 16.747C41.1683 16.6993 41.1547 16.6568 41.1172 16.6227L40.8737 16.3843C40.8533 16.3639 40.8499 16.3366 40.8567 16.3111C40.8669 16.2838 40.8874 16.2668 40.9163 16.2634L41.2534 16.2106C41.3011 16.2038 41.3402 16.18 41.3607 16.134L41.5139 15.8292C41.5241 15.8054 41.548 15.7883 41.5769 15.7883C41.5956 15.7883 41.6195 15.8054 41.6331 15.8292Z" fill="#6DC40F"/>
    <path fill-rule="evenodd" clip-rule="evenodd" d="M49.0853 27.284L49.2351 27.5888C49.2589 27.6348 49.2947 27.6621 49.3424 27.6689L49.6812 27.7165C49.7084 27.7199 49.7289 27.737 49.7374 27.7659C49.7476 27.7932 49.7408 27.8221 49.7203 27.8391L49.4769 28.0775C49.4428 28.1116 49.4275 28.1542 49.436 28.2052L49.4922 28.5373C49.499 28.5645 49.4888 28.5935 49.465 28.6105C49.4445 28.6241 49.4122 28.6275 49.3883 28.6139L49.087 28.4573C49.0461 28.4334 48.9967 28.4334 48.9559 28.4573L48.6545 28.6139C48.6307 28.6275 48.6017 28.6241 48.5779 28.6105C48.5575 28.5935 48.5438 28.5645 48.5507 28.5373L48.6068 28.2052C48.6171 28.1525 48.6034 28.1116 48.566 28.0775L48.3225 27.8391C48.3021 27.8221 48.2953 27.7949 48.3055 27.7659C48.3123 27.7387 48.3361 27.7216 48.3651 27.7165L48.7005 27.6689C48.7499 27.6621 48.7873 27.6348 48.8077 27.5888L48.961 27.284C48.9712 27.2602 48.995 27.2432 49.024 27.2432C49.0478 27.2432 49.0717 27.2602 49.0853 27.284Z" fill="#F80003"/>
    <path fill-rule="evenodd" clip-rule="evenodd" d="M66.859 3.54104L67.0838 3.99228C67.1144 4.05869 67.1706 4.09615 67.2438 4.10637L67.7427 4.183C67.7835 4.1864 67.8159 4.21365 67.8295 4.25281C67.8397 4.29368 67.8295 4.33625 67.8023 4.36349L67.4413 4.71768C67.3885 4.76535 67.3681 4.83176 67.3783 4.90498L67.4651 5.4005C67.472 5.44136 67.4549 5.48053 67.4209 5.50437C67.3902 5.52821 67.3477 5.53161 67.3102 5.51118L66.8624 5.2796C66.7994 5.24554 66.7313 5.24554 66.6649 5.2796L66.2205 5.51118C66.1831 5.53161 66.1405 5.52821 66.1065 5.50437C66.0758 5.48053 66.0588 5.44136 66.0656 5.4005L66.149 4.90498C66.1626 4.83176 66.1422 4.76706 66.0894 4.71768L65.7285 4.36349C65.6978 4.33625 65.6876 4.29368 65.7012 4.25281C65.7149 4.21535 65.7455 4.1864 65.7881 4.183L66.2869 4.10637C66.3567 4.09615 66.4112 4.05869 66.447 3.99228L66.6683 3.54104C66.6887 3.50358 66.7245 3.48145 66.7654 3.48145C66.8062 3.48145 66.842 3.50188 66.859 3.54104Z" fill="#00459B"/>
    <path fill-rule="evenodd" clip-rule="evenodd" d="M54.9017 3.04153L55.1265 3.49277C55.1571 3.55918 55.2133 3.59664 55.2865 3.60686L55.7854 3.68008C55.8262 3.68689 55.8586 3.71414 55.8722 3.7533C55.8824 3.79417 55.8722 3.83674 55.845 3.86398L55.484 4.21476C55.4312 4.26755 55.4108 4.33225 55.421 4.40547L55.5079 4.90099C55.5147 4.94185 55.4976 4.98102 55.4619 5.00486C55.4312 5.0287 55.3887 5.0321 55.3512 5.01167L54.9034 4.78009C54.8404 4.74603 54.7723 4.74603 54.7059 4.78009L54.2615 5.01167C54.2241 5.0321 54.1815 5.0287 54.1475 5.00486C54.1168 4.98102 54.0981 4.94185 54.1066 4.90099L54.19 4.40547C54.2037 4.33225 54.1832 4.26584 54.1304 4.21476L53.7695 3.86398C53.7388 3.83674 53.7286 3.79417 53.7422 3.7533C53.7559 3.71584 53.7865 3.68689 53.8291 3.68008L54.3279 3.60686C54.3978 3.59664 54.4522 3.55918 54.488 3.49277L54.7093 3.04153C54.7298 3.00407 54.7655 2.98193 54.8064 2.98193C54.8489 2.98193 54.8847 3.00237 54.9017 3.04153Z" fill="#9C0028"/>
    <path fill-rule="evenodd" clip-rule="evenodd" d="M46.0856 8.65652L46.3103 9.10776C46.341 9.17417 46.3971 9.21504 46.4704 9.22526L46.9692 9.29848C47.0067 9.30529 47.0424 9.32913 47.0527 9.3717C47.0663 9.40916 47.0561 9.45173 47.0288 9.47897L46.6679 9.83315C46.6151 9.88594 46.5947 9.94724 46.6049 10.0205L46.6883 10.516C46.6951 10.5568 46.6815 10.596 46.6474 10.6198C46.6134 10.6437 46.5708 10.6471 46.5368 10.6301L46.089 10.3951C46.0226 10.361 45.9579 10.361 45.8915 10.3951L45.4437 10.6301C45.4096 10.6471 45.3671 10.6437 45.333 10.6198C45.299 10.596 45.2853 10.5568 45.2922 10.516L45.3756 10.0205C45.3892 9.94724 45.3654 9.88594 45.3126 9.83315L44.955 9.47897C44.9244 9.45173 44.9142 9.40916 44.9278 9.3717C44.9414 9.33083 44.9738 9.30529 45.0146 9.29848L45.5101 9.22526C45.5833 9.21504 45.6378 9.17247 45.6701 9.10776L45.8949 8.65652C45.9119 8.61906 45.9511 8.59692 45.9919 8.59692C46.0345 8.59692 46.0685 8.61736 46.0856 8.65652Z" fill="#008CD6"/>
    <path fill-rule="evenodd" clip-rule="evenodd" d="M57.3861 13.493L57.5359 13.7978C57.5597 13.8438 57.5955 13.871 57.6431 13.8779L57.9786 13.9255C58.0058 13.9289 58.0313 13.9494 58.0382 13.9732C58.0484 14.0005 58.0416 14.0294 58.0211 14.0498L57.7777 14.2848C57.7436 14.3189 57.7283 14.3649 57.7368 14.4125L57.793 14.748C57.7998 14.7752 57.7896 14.8008 57.7657 14.8178C57.7453 14.8348 57.713 14.8348 57.6891 14.8212L57.3878 14.6646C57.3469 14.6407 57.2975 14.6407 57.2567 14.6646L56.9553 14.8212C56.9315 14.8348 56.9025 14.8348 56.8787 14.8178C56.8548 14.8008 56.8446 14.7769 56.8514 14.748L56.9076 14.4125C56.9178 14.3632 56.9008 14.3189 56.8668 14.2848L56.6233 14.0498C56.6029 14.0294 56.596 14.0005 56.6063 13.9732C56.6131 13.9494 56.6369 13.9289 56.6658 13.9255L57.0013 13.8779C57.0506 13.871 57.0881 13.8438 57.1085 13.7978L57.2584 13.493C57.272 13.4692 57.2958 13.4556 57.3248 13.4556C57.3469 13.4556 57.3707 13.4692 57.3861 13.493Z" fill="#2E7024"/>
    <path fill-rule="evenodd" clip-rule="evenodd" d="M66.1661 26.3863L66.3193 26.6911C66.3398 26.7371 66.3789 26.7644 66.4266 26.7712L66.7637 26.8188C66.791 26.8223 66.8114 26.8427 66.8233 26.8682C66.8301 26.8955 66.8233 26.9244 66.8063 26.9414L66.5628 27.1798C66.5254 27.2139 66.51 27.2599 66.522 27.3075L66.5781 27.6396C66.5815 27.6668 66.5713 27.6958 66.5509 27.7128C66.5271 27.7298 66.4981 27.7298 66.4743 27.7162L66.1729 27.5596C66.1286 27.5357 66.0827 27.5357 66.0418 27.5596L65.7404 27.7162C65.7132 27.7298 65.6843 27.7298 65.6638 27.7128C65.64 27.6958 65.6298 27.6668 65.6366 27.6396L65.6928 27.3075C65.6996 27.2599 65.686 27.2139 65.6519 27.1798L65.4084 26.9449C65.388 26.9244 65.3812 26.8955 65.3914 26.8682C65.3982 26.8444 65.4187 26.824 65.4476 26.8188L65.7847 26.7712C65.8375 26.7644 65.8716 26.7371 65.8954 26.6911L66.0452 26.3863C66.0588 26.3625 66.0827 26.3489 66.1116 26.3489C66.1304 26.3489 66.1559 26.3625 66.1661 26.3863Z" fill="#00B3EC"/>
    <path fill-rule="evenodd" clip-rule="evenodd" d="M60.7565 0.0374615L60.9064 0.342262C60.9268 0.386535 60.966 0.415482 61.0136 0.422294L61.3508 0.469972C61.378 0.473377 61.4035 0.493811 61.4104 0.519353C61.4206 0.546598 61.4138 0.575545 61.3933 0.595979L61.1498 0.830965C61.1158 0.865021 61.0971 0.910996 61.109 0.958674L61.1652 1.29583C61.172 1.32307 61.1618 1.34861 61.1379 1.36564C61.1141 1.38267 61.0852 1.38267 61.0613 1.37245L60.76 1.21239C60.7191 1.18855 60.6697 1.18855 60.6288 1.21239L60.3275 1.37245C60.3036 1.38267 60.2713 1.38267 60.2509 1.36564C60.227 1.34861 60.2168 1.32478 60.2236 1.29583L60.2798 0.958674C60.2866 0.910996 60.273 0.865021 60.2389 0.830965L59.9955 0.595979C59.975 0.575545 59.9682 0.5483 59.9784 0.519353C59.9853 0.495514 60.0091 0.473377 60.038 0.469972L60.3752 0.422294C60.4228 0.415482 60.4586 0.388238 60.4824 0.342262L60.6237 0.0374615C60.6374 0.0136224 60.6612 0 60.6901 0C60.7174 0 60.7412 0.0136224 60.7565 0.0374615Z" fill="#ED0F48"/>
    <path fill-rule="evenodd" clip-rule="evenodd" d="M48.7342 2.3568L48.884 2.6616C48.9079 2.70757 48.9436 2.73482 48.9913 2.74163L49.3284 2.78931C49.3557 2.79271 49.3795 2.80974 49.388 2.83699C49.3982 2.86423 49.3914 2.89318 49.371 2.91021L49.1275 3.1486C49.0935 3.18265 49.0747 3.22522 49.0867 3.27631L49.1428 3.60835C49.1496 3.6356 49.1394 3.66455 49.1156 3.68157C49.0918 3.6952 49.0628 3.6986 49.039 3.68498L48.7376 3.52832C48.6968 3.50448 48.6474 3.50448 48.6065 3.52832L48.3052 3.68498C48.2813 3.6986 48.249 3.6952 48.2285 3.68157C48.2047 3.66455 48.1945 3.6373 48.2013 3.60835L48.2575 3.27631C48.2643 3.22352 48.2507 3.18265 48.2166 3.1486L47.9748 2.91021C47.9544 2.89318 47.9476 2.86423 47.9578 2.83699C47.9646 2.80974 47.9885 2.79271 48.0174 2.78931L48.3528 2.74163C48.4022 2.73482 48.4363 2.70757 48.4601 2.6616L48.6099 2.3568C48.6235 2.33296 48.6474 2.31934 48.6763 2.31934C48.695 2.31934 48.7206 2.33296 48.7342 2.3568Z" fill="#00459B"/>
    <path fill-rule="evenodd" clip-rule="evenodd" d="M57.3033 22.819C57.1432 22.7594 56.9015 22.7458 56.7653 22.785C57.3646 23.0557 57.2965 23.5512 57.86 23.6142C58.3419 23.667 58.5292 23.4865 58.6024 23.5546C58.6398 23.5921 58.599 23.8015 58.6552 24.0093C58.7897 24.0535 59.0195 23.9956 59.0995 24.0297C59.2375 24.0893 59.0859 24.3703 59.3873 24.5116C59.595 24.6121 59.6154 24.7687 59.5575 24.9339C59.5082 25.0718 59.3737 25.2353 59.2698 25.4124C59.0059 25.8704 59.6274 26.526 59.956 25.9947C60.1671 25.6559 60.2573 24.75 60.4548 24.2919C60.9128 23.2311 61.2482 22.6113 61.4713 21.9455C61.5581 21.6849 61.742 21.249 61.6211 21.0226C61.5002 20.8012 60.872 20.9153 60.8652 20.7791C60.8617 20.6922 61.4849 20.7126 61.5002 20.6224C61.5139 20.5117 60.7902 20.384 60.8311 20.2444C60.8771 20.0809 61.5445 20.4351 61.5939 20.3108C61.6569 20.1507 60.8243 19.6586 60.9946 19.4747C61.0882 19.3708 61.6841 20.0707 61.8339 19.9038C61.9174 19.8102 61.5768 19.1512 61.7709 19.0609C61.8952 19.0047 62.0212 19.3998 62.1421 19.754C62.5337 20.9085 63.3629 19.8102 63.3101 20.2665C63.2931 20.4402 63.1092 20.4845 62.9219 20.5611C62.4741 20.745 62.4026 21.2303 62.2868 21.6713C62.0468 22.6147 62.0961 23.5853 61.8714 24.5218C61.7471 25.0343 61.4628 25.6729 61.3095 26.1786C61.5939 26.4664 62.0093 26.3864 61.444 27.0181C61.3402 27.1748 61.3879 27.3399 61.5888 27.5136C63.305 29.3033 63.5723 30.8 63.3782 32.2951C61.8952 32.7429 60.431 33.138 59.011 33.4802C59.309 32.5369 59.8249 31.7434 59.8538 30.5923C59.8742 29.7528 59.6461 29.5076 59.0314 30.0934C59.0042 30.1206 58.9787 30.0968 58.8901 29.9929C58.8561 29.952 58.8459 29.9333 58.7795 29.8618C58.5053 30.2398 57.5842 31.0861 57.4906 31.5544C57.4242 31.8728 57.5808 32.1537 57.6983 32.3734C57.826 32.6118 57.9792 32.7276 57.9333 32.7412C57.6319 32.8451 57.4957 32.4023 57.2403 32.45C57.0019 32.496 56.9389 33.1567 56.7687 33.1056C56.6274 33.0647 56.8759 32.3666 56.8453 32.353C56.7346 32.3155 56.28 32.9983 56.1421 32.9353C56.0144 32.8791 56.5899 32.1861 56.5405 32.1554C56.4605 32.1027 55.8373 32.5999 55.7113 32.4994C55.6245 32.433 56.3039 31.9205 56.2868 31.8864C56.2596 31.8234 55.6313 31.9801 55.6415 31.82C55.6449 31.757 55.8595 31.7297 56.0927 31.6497C56.8453 31.396 57.2335 30.2313 57.7051 29.2675C57.9264 28.8094 58.8288 27.7724 58.4713 27.4506C58.33 27.3195 58.0456 27.3229 57.7647 27.4642C55.616 28.5523 54.4855 27.7554 53.864 26.3336C53.7006 26.4136 53.5558 26.572 53.5269 26.7491C53.3924 26.5413 53.4469 26.2604 53.6546 26.1207C53.326 26.1139 53.0246 25.9368 52.8578 25.6491C53.1081 25.8125 53.406 25.884 53.7006 25.85C52.9582 23.4933 56.3669 21.811 57.4787 22.584C57.2437 22.5346 57.0002 22.5704 56.8402 22.6436C57.0019 22.6555 57.196 22.7322 57.3033 22.819ZM62.9696 34.1801C62.7789 34.9293 62.6512 35.8573 62.7959 36.6764C62.9134 37.3558 61.1257 37.0782 60.557 37.0442C59.5865 36.988 59.2851 36.9999 59.1677 36.8398C59.0638 36.7019 59.0978 36.4346 58.9565 35.8863C58.9003 35.6819 58.8663 35.4844 58.839 35.3005C60.1909 34.9668 61.57 34.5955 62.9696 34.1801Z" fill="#0C0B38"/>
    <path fill-rule="evenodd" clip-rule="evenodd" d="M62.0658 37.0748C62.0556 37.8785 61.4665 38.9683 61.2928 39.8964C61.2264 40.2284 61.1532 40.6967 61.1889 40.9402C61.3234 41.8665 62.2428 42.1083 62.2054 42.2786C62.1679 42.4557 61.6367 42.316 61.4699 42.2581C60.7037 41.967 60.0482 41.5787 59.6872 40.9623C59.4625 40.5741 60.009 40.5707 60.1793 40.397C60.6015 39.9662 60.2831 38.2719 60.6782 36.7632L62.0658 37.0748Z" fill="#0C0B38"/>
    <path fill-rule="evenodd" clip-rule="evenodd" d="M61.5106 37.2587C61.1224 37.962 60.0924 38.6448 59.4998 39.3838C59.2887 39.6477 59.001 40.0258 58.9175 40.2573C58.6026 41.1377 59.2955 41.783 59.1849 41.9142C59.0674 42.0521 58.6656 41.6826 58.5464 41.5498C58.0271 40.9572 57.6389 40.3289 57.5895 39.646C57.5452 39.0739 58.0049 39.3889 58.2825 39.3021C58.8614 39.1182 59.3738 37.4716 60.4346 36.3307L61.5106 37.2587Z" fill="#0C0B38"/>
    <path fill-rule="evenodd" clip-rule="evenodd" d="M74.733 14.6916C78.2727 13.9526 80.7824 14.1757 81.569 15.5379C83.3823 18.6761 75.3783 26.6912 63.695 33.4377C52.0099 40.1842 41.0689 43.1062 39.2556 39.9662C38.154 38.0557 40.6841 34.3436 45.4685 30.2075C42.1824 33.3457 40.5564 36.077 41.4197 37.5704C43.0422 40.3817 52.8272 37.7645 63.2795 31.7281C73.7353 25.6951 80.8931 18.5263 79.2705 15.715C78.6916 14.7103 77.0622 14.4004 74.733 14.6916Z" fill="#0C0B38"/>
    <path fill-rule="evenodd" clip-rule="evenodd" d="M49.6871 32.4878L49.9119 32.9391C49.9425 33.0055 49.9987 33.0429 50.0719 33.0531L50.5708 33.1298C50.6082 33.1332 50.644 33.1604 50.6542 33.1996C50.6678 33.2405 50.6576 33.283 50.6304 33.3103L50.2694 33.6645C50.2166 33.7121 50.1962 33.7785 50.2064 33.8518L50.2899 34.3473C50.2967 34.3881 50.283 34.4273 50.249 34.4511C50.2149 34.475 50.1724 34.4784 50.1383 34.458L49.6905 34.2264C49.6241 34.1923 49.5594 34.1923 49.493 34.2264L49.0452 34.458C49.0112 34.4784 48.9686 34.475 48.9346 34.4511C48.9005 34.4273 48.8869 34.3881 48.8937 34.3473L48.9771 33.8518C48.9908 33.7785 48.9703 33.7138 48.9141 33.6645L48.5566 33.3103C48.526 33.283 48.5157 33.2405 48.5294 33.1996C48.543 33.1621 48.5736 33.1332 48.6162 33.1298L49.1117 33.0531C49.1849 33.0429 49.2393 33.0038 49.2751 32.9391L49.4964 32.4878C49.5135 32.4504 49.5526 32.4282 49.5935 32.4282C49.6344 32.4299 49.6684 32.4504 49.6871 32.4878Z" fill="#2B0055"/>
    <path d="M4.6498 66.3342C5.09073 66.3342 5.45149 66.3008 5.73208 66.234C6.02604 66.1538 6.25986 66.0536 6.43356 65.9333C6.60726 65.7997 6.72752 65.646 6.79432 65.4723C6.86113 65.2986 6.89453 65.1048 6.89453 64.891C6.89453 64.4367 6.68075 64.0625 6.25318 63.7685C5.82561 63.4612 5.09073 63.1338 4.04853 62.7863C3.59424 62.626 3.13995 62.4456 2.68566 62.2451C2.23137 62.0313 1.82384 61.7708 1.46308 61.4634C1.10232 61.1427 0.808371 60.7619 0.581225 60.3209C0.35408 59.8665 0.240507 59.3187 0.240507 58.6772C0.240507 58.0358 0.360761 57.4612 0.601268 56.9534C0.841775 56.4323 1.18249 55.9913 1.62342 55.6305C2.06435 55.2697 2.59881 54.9958 3.2268 54.8087C3.85479 54.6082 4.56295 54.508 5.35128 54.508C6.28659 54.508 7.09496 54.6082 7.77639 54.8087C8.45783 55.0091 9.01901 55.2296 9.45994 55.4701L8.55804 57.9356C8.17056 57.7352 7.73631 57.5614 7.25529 57.4144C6.78764 57.2541 6.21978 57.1739 5.5517 57.1739C4.80346 57.1739 4.26232 57.2808 3.92828 57.4946C3.60761 57.6951 3.44727 58.0091 3.44727 58.4367C3.44727 58.6906 3.50739 58.9044 3.62765 59.0781C3.7479 59.2519 3.91492 59.4122 4.1287 59.5592C4.35585 59.6928 4.60972 59.8198 4.89031 59.94C5.18426 60.0469 5.50494 60.1605 5.85234 60.2808C6.57386 60.5481 7.20185 60.8153 7.73631 61.0826C8.27077 61.3365 8.7117 61.6371 9.0591 61.9846C9.41986 62.332 9.68709 62.7396 9.86079 63.2073C10.0345 63.675 10.1213 64.2429 10.1213 64.9111C10.1213 66.2073 9.66705 67.2162 8.75846 67.9378C7.84988 68.646 6.48033 69.0001 4.6498 69.0001C4.03517 69.0001 3.48067 68.96 2.9863 68.8798C2.49192 68.813 2.05099 68.7262 1.66351 68.6193C1.28938 68.5124 0.962028 68.3988 0.681437 68.2785C0.414207 68.1582 0.187061 68.0447 0 67.9378L0.881859 65.4523C1.29607 65.6794 1.8038 65.8865 2.40507 66.0736C3.0197 66.2473 3.76794 66.3342 4.6498 66.3342Z" fill="#0C0B38"/>
    <path d="M15.3129 68.7195H12.3266V58.1761H15.3129V68.7195ZM15.5935 55.1294C15.5935 55.6773 15.4131 56.1116 15.0524 56.4323C14.705 56.7396 14.2908 56.8933 13.8097 56.8933C13.3287 56.8933 12.9078 56.7396 12.5471 56.4323C12.1997 56.1116 12.026 55.6773 12.026 55.1294C12.026 54.5815 12.1997 54.1539 12.5471 53.8465C12.9078 53.5258 13.3287 53.3655 13.8097 53.3655C14.2908 53.3655 14.705 53.5258 15.0524 53.8465C15.4131 54.1539 15.5935 54.5815 15.5935 55.1294Z" fill="#0C0B38"/>
    <path d="M24.4735 60.822C24.2062 60.7552 23.8922 60.6884 23.5315 60.6216C23.1707 60.5414 22.7832 60.5013 22.369 60.5013C22.182 60.5013 21.9548 60.5213 21.6876 60.5614C21.4337 60.5881 21.24 60.6216 21.1064 60.6616V68.7195H18.1201V58.7374C18.6545 58.5503 19.2825 58.3766 20.004 58.2162C20.7389 58.0425 21.554 57.9556 22.4492 57.9556C22.6095 57.9556 22.8033 57.969 23.0304 57.9957C23.2576 58.0091 23.4847 58.0358 23.7119 58.0759C23.939 58.1026 24.1662 58.1427 24.3933 58.1962C24.6204 58.2363 24.8142 58.2897 24.9745 58.3565L24.4735 60.822Z" fill="#0C0B38"/>
    <path d="M29.5617 68.7195H26.5754V58.1761H29.5617V68.7195ZM29.8423 55.1294C29.8423 55.6773 29.6619 56.1116 29.3011 56.4323C28.9537 56.7396 28.5395 56.8933 28.0585 56.8933C27.5775 56.8933 27.1566 56.7396 26.7959 56.4323C26.4485 56.1116 26.2748 55.6773 26.2748 55.1294C26.2748 54.5815 26.4485 54.1539 26.7959 53.8465C27.1566 53.5258 27.5775 53.3655 28.0585 53.3655C28.5395 53.3655 28.9537 53.5258 29.3011 53.8465C29.6619 54.1539 29.8423 54.5815 29.8423 55.1294Z" fill="#0C0B38"/>
    <path d="M41.3678 68.3587C40.8601 68.5057 40.2054 68.6393 39.4037 68.7596C38.602 68.8932 37.7602 68.96 36.8784 68.96C35.9832 68.96 35.2349 68.8398 34.6336 68.5992C34.0457 68.3587 33.5781 68.0246 33.2307 67.597C32.8833 67.156 32.6361 66.6349 32.4891 66.0335C32.3421 65.4322 32.2687 64.7707 32.2687 64.0491V58.1761H35.2549V63.6883C35.2549 64.6505 35.3819 65.3453 35.6357 65.773C35.8896 66.2006 36.364 66.4144 37.0588 66.4144C37.2725 66.4144 37.4997 66.4077 37.7402 66.3943C37.9807 66.3676 38.1945 66.3409 38.3815 66.3142V58.1761H41.3678V68.3587Z" fill="#0C0B38"/>
    <path d="M47.1975 66.5747C47.7453 66.5747 48.1328 66.5213 48.3599 66.4144C48.5871 66.3075 48.7006 66.1004 48.7006 65.793C48.7006 65.5525 48.5537 65.3453 48.2597 65.1716C47.9658 64.9845 47.5181 64.7774 46.9169 64.5503C46.4492 64.3765 46.0217 64.1961 45.6342 64.0091C45.26 63.822 44.9394 63.6015 44.6721 63.3476C44.4049 63.0803 44.1978 62.7663 44.0508 62.4055C43.9039 62.0447 43.8304 61.6104 43.8304 61.1026C43.8304 60.1138 44.1978 59.332 44.9327 58.7574C45.6676 58.1828 46.6764 57.8955 47.9591 57.8955C48.6004 57.8955 49.2151 57.9556 49.803 58.0759C50.3909 58.1828 50.8585 58.3031 51.2059 58.4367L50.6848 60.7619C50.3374 60.6416 49.9566 60.5347 49.5424 60.4412C49.1416 60.3476 48.6873 60.3008 48.1795 60.3008C47.2442 60.3008 46.7766 60.5614 46.7766 61.0826C46.7766 61.2028 46.7966 61.3097 46.8367 61.4033C46.8768 61.4968 46.957 61.5904 47.0772 61.6839C47.1975 61.7641 47.3578 61.8576 47.5582 61.9645C47.772 62.0581 48.0392 62.165 48.3599 62.2852C49.0146 62.5258 49.5558 62.7663 49.9833 63.0068C50.4109 63.234 50.7449 63.4879 50.9855 63.7685C51.2393 64.0358 51.413 64.3364 51.5066 64.6705C51.6134 65.0046 51.6669 65.3921 51.6669 65.8331C51.6669 66.8754 51.2727 67.6638 50.4844 68.1983C49.7094 68.7329 48.6071 69.0001 47.1774 69.0001C46.2421 69.0001 45.4605 68.9199 44.8325 68.7596C44.2178 68.5992 43.7903 68.4656 43.5498 68.3587L44.0508 65.9333C44.5586 66.1338 45.0797 66.2941 45.6141 66.4144C46.1486 66.5213 46.6764 66.5747 47.1975 66.5747Z" fill="#0C0B38"/>
    <path d="M58.9139 68.7195V54.8287H68.2135V57.4545H62.0405V60.361H67.5321V62.9868H62.0405V68.7195H58.9139Z" fill="#0C0B38"/>
    <path d="M78.8296 68.3587C78.3219 68.5057 77.6672 68.6393 76.8655 68.7596C76.0638 68.8932 75.222 68.96 74.3402 68.96C73.4449 68.96 72.6967 68.8398 72.0954 68.5992C71.5075 68.3587 71.0399 68.0246 70.6925 67.597C70.3451 67.156 70.0979 66.6349 69.9509 66.0335C69.8039 65.4322 69.7304 64.7707 69.7304 64.0491V58.1761H72.7167V63.6883C72.7167 64.6505 72.8437 65.3453 73.0975 65.773C73.3514 66.2006 73.8257 66.4144 74.5205 66.4144C74.7343 66.4144 74.9615 66.4077 75.202 66.3943C75.4425 66.3676 75.6563 66.3409 75.8433 66.3142V58.1761H78.8296V68.3587Z" fill="#0C0B38"/>
    <path d="M81.5327 55.5503L84.519 55.0693V58.1761H88.1065V60.6616H84.519V64.3699C84.519 64.9979 84.6258 65.499 84.8396 65.8732C85.0668 66.2473 85.5144 66.4344 86.1825 66.4344C86.5031 66.4344 86.8305 66.4077 87.1645 66.3542C87.5119 66.2874 87.8259 66.2006 88.1065 66.0937L88.5274 68.4188C88.1666 68.5658 87.7658 68.6928 87.3249 68.7997C86.8839 68.9066 86.3428 68.96 85.7014 68.96C84.8864 68.96 84.2116 68.8531 83.6772 68.6393C83.1427 68.4121 82.7151 68.1048 82.3945 67.7173C82.0738 67.3164 81.8467 66.8353 81.713 66.2741C81.5928 65.7128 81.5327 65.0915 81.5327 64.4099V55.5503Z" fill="#0C0B38"/>
    <path d="M99.5373 68.3587C99.0296 68.5057 98.3749 68.6393 97.5732 68.7596C96.7715 68.8932 95.9297 68.96 95.0479 68.96C94.1526 68.96 93.4044 68.8398 92.8031 68.5992C92.2152 68.3587 91.7476 68.0246 91.4002 67.597C91.0528 67.156 90.8056 66.6349 90.6586 66.0335C90.5116 65.4322 90.4381 64.7707 90.4381 64.0491V58.1761H93.4244V63.6883C93.4244 64.6505 93.5514 65.3453 93.8052 65.773C94.0591 66.2006 94.5334 66.4144 95.2282 66.4144C95.442 66.4144 95.6692 66.4077 95.9097 66.3943C96.1502 66.3676 96.364 66.3409 96.551 66.3142V58.1761H99.5373V68.3587Z" fill="#0C0B38"/>
    <path d="M108.694 60.822C108.427 60.7552 108.113 60.6884 107.752 60.6216C107.391 60.5414 107.004 60.5013 106.59 60.5013C106.402 60.5013 106.175 60.5213 105.908 60.5614C105.654 60.5881 105.46 60.6216 105.327 60.6616V68.7195H102.341V58.7374C102.875 58.5503 103.503 58.3766 104.225 58.2162C104.959 58.0425 105.774 57.9556 106.67 57.9556C106.83 57.9556 107.024 57.969 107.251 57.9957C107.478 58.0091 107.705 58.0358 107.932 58.0759C108.16 58.1026 108.387 58.1427 108.614 58.1962C108.841 58.2363 109.035 58.2897 109.195 58.3565L108.694 60.822Z" fill="#0C0B38"/>
    <path d="M110.099 63.528C110.099 62.5926 110.239 61.7774 110.52 61.0826C110.814 60.3743 111.195 59.7864 111.662 59.3187C112.13 58.851 112.665 58.4968 113.266 58.2563C113.88 58.0158 114.508 57.8955 115.15 57.8955C116.646 57.8955 117.829 58.3565 118.697 59.2786C119.566 60.1873 120 61.5302 120 63.3075C120 63.4812 119.993 63.675 119.98 63.8888C119.967 64.0892 119.953 64.2696 119.94 64.43H113.166C113.232 65.0447 113.52 65.5324 114.027 65.8932C114.535 66.254 115.217 66.4344 116.072 66.4344C116.62 66.4344 117.154 66.3877 117.675 66.2941C118.21 66.1872 118.644 66.0603 118.978 65.9133L119.379 68.3386C119.218 68.4188 119.005 68.499 118.737 68.5792C118.47 68.6594 118.169 68.7262 117.835 68.7796C117.515 68.8464 117.167 68.8999 116.793 68.94C116.419 68.9801 116.045 69.0001 115.671 69.0001C114.722 69.0001 113.894 68.8598 113.186 68.5792C112.491 68.2986 111.91 67.9177 111.442 67.4366C110.988 66.9422 110.647 66.3609 110.42 65.6928C110.206 65.0246 110.099 64.303 110.099 63.528ZM117.114 62.3855C117.101 62.1316 117.054 61.8843 116.974 61.6438C116.907 61.4033 116.793 61.1895 116.633 61.0024C116.486 60.8153 116.292 60.6616 116.052 60.5414C115.825 60.4211 115.537 60.361 115.19 60.361C114.856 60.361 114.569 60.4211 114.328 60.5414C114.088 60.6483 113.887 60.7953 113.727 60.9824C113.566 61.1694 113.44 61.3899 113.346 61.6438C113.266 61.8843 113.206 62.1316 113.166 62.3855H117.114Z" fill="#0C0B38"/>
</svg>